<svg xmlns="http://www.w3.org/2000/svg" viewBox="0 0 310 70" >
    <title>PowerGrid logo</title>
    <style>.a{fill:#f59e0b}.b{fill:#fbbf24}</style>
    <polygon class="a" points="0,4.8 21,19.1 21,10.8 35,14.9 14.6,0 14.6,9"/>
    <polygon class="a" points="25.5,4.8 46.5,19.1 46.5,10.8 60.5,14.9 40.1,0 40.1,9"/>
    <polygon class="a" points="51,4.8 72,19.1 72,10.8 86,14.9 65.6,0 65.6,9"/>
    <polygon class="b" points="0,30.3 21,44.5 21,36.2 35,40.4 14.6,25.5 14.6,34.5"/>
    <polygon class="b" points="25.5,30.3 46.5,44.5 46.5,36.2 60.5,40.4 40.1,25.5 40.1,34.5"/>
    <polygon class="b" points="51,30.3 72,44.5 72,36.2 86,40.4 65.6,25.5 65.6,34.5"/>
    <polygon class="b" points="0,55.7 21,70 21,61.7 35,65.8 14.6,50.9 14.6,60"/>
    <polygon class="b" points="25.5,55.7 46.5,70 46.5,61.7 60.5,65.8 40.1,50.9 40.1,60"/>
    <polygon class="b" points="51,55.7 72,70 72,61.7 86,65.8 65.6,50.9 65.6,60"/>
    <path fill="#1c1917" d="M113.7,24.4h9.7c5.5,0,8.4,3,7.6,7.5c-0.8,4.5-4.7,7.4-10.3,7.4h-3.5l-1.1,6.1H110L113.7,24.4z M120.8,34.9c2.1,0,3.7-1.2,4-3.1c0.3-1.8-0.8-2.9-2.9-2.9h-2.9l-1.1,6H120.8z M131.9,34.9c1.2-6.7,6.6-10.9,13.6-10.9 c7,0,11.1,4.3,9.9,11c-1.2,6.7-6.6,10.9-13.6,10.9C134.8,45.9,130.8,41.6,131.9,34.9z M149.3,34.9c0.6-3.5-1.2-5.8-4.5-5.8 c-3.3,0-6,2.4-6.6,5.9c-0.6,3.5,1.2,5.8,4.5,5.8C145.9,40.8,148.6,38.5,149.3,34.9z M157.7,24.4h6.1l1.2,15.4h0.3l6.6-15.4h6.1 l1.2,15.4h0.3l6.6-15.4h6.2L183,45.5h-8.6l-0.7-12.8h-0.3l-5.1,12.8h-8.6L157.7,24.4z M194.6,24.4h16.1l-0.8,4.9h-10.1l-0.6,3.5 h9.6l-0.7,4h-9.6l-0.6,3.7h10.4l-0.8,4.9h-16.4L194.6,24.4z M213.5,24.4H224c5.1,0,8,2.9,7.3,7.2c-0.6,3.4-3.2,5.8-6.3,6.4 l-0.3,0.1l4.9,7.4h-6.9l-4-6.9h-1.5l-1.2,6.9h-6.2L213.5,24.4z M221.2,34.5c2,0,3.7-1.1,4-2.9c0.3-1.7-1-2.7-2.9-2.7h-3.3l-1,5.6 H221.2z"/>
    <path class="a" d="M232.6,34.9c1.1-6.5,6.8-10.9,13.6-10.9c5,0,8.7,2.8,9,6.7l-5.8,1c-0.2-1.6-1.9-2.7-3.9-2.7 c-3.2,0-6,2.4-6.6,5.9c-0.6,3.4,1.3,5.9,4.7,5.9c2.7,0,5.2-1.7,5.8-3.9h-7.1l0.6-3.6l13,0c-0.6,7.5-6.1,12.6-13.3,12.6 C235.6,46,231.4,41.4,232.6,34.9z M259.9,24.4h10.5c5.1,0,8,2.9,7.3,7.2c-0.6,3.4-3.2,5.8-6.3,6.4l-0.3,0.1l4.9,7.4h-6.9l-4-6.9 h-1.5l-1.2,6.9h-6.2L259.9,24.4z M267.6,34.5c2,0,3.7-1.1,4-2.9c0.3-1.7-1-2.7-2.9-2.7h-3.3l-1,5.6H267.6z M281.6,24.4h6.2 l-3.7,21.1h-6.2L281.6,24.4z M291.1,24.4h8.5c7.2,0,11.3,4.2,10.1,10.6c-1.1,6.3-6.6,10.5-13.8,10.5h-8.6L291.1,24.4z M296.8,40.8 c3.5,0,6.3-2.3,6.9-5.9c0.6-3.5-1.3-5.8-4.8-5.8h-2.6l-2,11.7H296.8z"/>
</svg>
