<svg xmlns="http://www.w3.org/2000/svg" viewBox="0 0 240 22">
    <title>PowerGrid small logo</title>
    <polygon fill="#f59e0b" points="0,6.5 21.6,20 21.6,12.2 36,16.1 15.1,2 15.1,10.5 	"/>
    <path fill="#1c1917" d="M43.7,0.4h9.7c5.5,0,8.4,3,7.6,7.5c-0.8,4.5-4.7,7.4-10.3,7.4h-3.5l-1.1,6.1H40L43.7,0.4z M50.8,10.9c2.1,0,3.7-1.2,4-3.1C55.1,6.1,54,4.9,52,4.9h-2.9l-1.1,6H50.8z M61.9,10.9C63.1,4.2,68.6,0,75.5,0c7,0,11.1,4.3,9.9,11 c-1.2,6.7-6.6,10.9-13.6,10.9C64.8,21.9,60.8,17.6,61.9,10.9z M79.3,10.9c0.6-3.5-1.2-5.8-4.5-5.8c-3.3,0-6,2.4-6.6,5.9 c-0.6,3.5,1.2,5.8,4.5,5.8C75.9,16.8,78.6,14.5,79.3,10.9z M87.7,0.4h6.1l1.2,15.4h0.3L102,0.4h6.1l1.2,15.4h0.3l6.6-15.4h6.2 L113,21.5h-8.6l-0.7-12.8h-0.3l-5.1,12.8h-8.6L87.7,0.4z M124.6,0.4h16.1l-0.8,4.9h-10.1l-0.6,3.5h9.6l-0.7,4h-9.6l-0.6,3.7h10.4 l-0.8,4.9h-16.4L124.6,0.4z M143.5,0.4H154c5.1,0,8,2.9,7.3,7.2c-0.6,3.4-3.2,5.8-6.3,6.4l-0.3,0.1l4.9,7.4h-6.9l-4-6.9h-1.5 l-1.2,6.9h-6.2L143.5,0.4z M151.2,10.5c2,0,3.7-1.1,4-2.9c0.3-1.7-1-2.7-2.9-2.7h-3.3l-1,5.6H151.2z"/>
    <path fill="#f59e0b" d="M162.6,10.9C163.7,4.4,169.4,0,176.2,0c5,0,8.7,2.8,9,6.7l-5.8,1c-0.2-1.6-1.9-2.7-3.9-2.7 c-3.2,0-6,2.4-6.6,5.9c-0.6,3.4,1.3,5.9,4.7,5.9c2.7,0,5.2-1.7,5.8-3.9h-7.1l0.6-3.6l13,0c-0.6,7.5-6.1,12.6-13.3,12.6 C165.6,22,161.4,17.4,162.6,10.9z M189.9,0.4h10.5c5.1,0,8,2.9,7.3,7.2c-0.6,3.4-3.2,5.8-6.3,6.4l-0.3,0.1l4.9,7.4h-6.9l-4-6.9 h-1.5l-1.2,6.9h-6.2L189.9,0.4z M197.6,10.5c2,0,3.7-1.1,4-2.9c0.3-1.7-1-2.7-2.9-2.7h-3.3l-1,5.6H197.6z M211.6,0.4h6.2l-3.7,21.1 h-6.2L211.6,0.4z M221.1,0.4h8.5c7.2,0,11.3,4.2,10.1,10.6c-1.1,6.3-6.6,10.5-13.8,10.5h-8.6L221.1,0.4z M226.8,16.8 c3.5,0,6.3-2.3,6.9-5.9c0.6-3.5-1.3-5.8-4.8-5.8h-2.6l-2,11.7H226.8z"/>
</svg>
