<svg xmlns="http://www.w3.org/2000/svg" viewBox="0 0 284 44">
    <title>PowerGrid medium logo</title>
    <style>.a{fill:#f59e0b}.b{fill:#fbbf24}</style>
    <polygon class="a" points="0,4.8 20.8,18.9 20.8,10.7 34.7,14.7 14.5,0 14.5,8.9 		"/>
    <polygon class="a" points="25.3,4.8 46.1,18.9 46.1,10.7 60,14.7 39.8,0 39.8,8.9 		"/>
    <polygon class="b" points="0,29.9 20.8,44 20.8,35.8 34.7,39.9 14.5,25.1 14.5,34.1 		"/>
    <polygon class="b" points="25.3,29.9 46.1,44 46.1,35.8 60,39.9 39.8,25.1 39.8,34.1 		"/>
    <path fill="#1c1917" d="M87.7,11.4h9.7c5.5,0,8.4,3,7.6,7.5c-0.8,4.5-4.7,7.4-10.3,7.4h-3.5l-1.1,6.1H84L87.7,11.4z M94.8,21.9c2.1,0,3.7-1.2,4-3.1c0.3-1.8-0.8-2.9-2.9-2.9h-2.9l-1.1,6H94.8z M105.9,21.9c1.2-6.7,6.6-10.9,13.6-10.9 c7,0,11.1,4.3,9.9,11c-1.2,6.7-6.6,10.9-13.6,10.9C108.8,32.9,104.8,28.6,105.9,21.9z M123.3,21.9c0.6-3.5-1.2-5.8-4.5-5.8 c-3.3,0-6,2.4-6.6,5.9c-0.6,3.5,1.2,5.8,4.5,5.8C119.9,27.8,122.6,25.5,123.3,21.9z M131.7,11.4h6.1l1.2,15.4h0.3l6.6-15.4h6.1 l1.2,15.4h0.3l6.6-15.4h6.2L157,32.5h-8.6l-0.7-12.8h-0.3l-5.1,12.8h-8.6L131.7,11.4z M168.6,11.4h16.1l-0.8,4.9h-10.1l-0.6,3.5 h9.6l-0.7,4h-9.6l-0.6,3.7h10.4l-0.8,4.9h-16.4L168.6,11.4z M187.5,11.4H198c5.1,0,8,2.9,7.3,7.2c-0.6,3.4-3.2,5.8-6.3,6.4 l-0.3,0.1l4.9,7.4h-6.9l-4-6.9h-1.5l-1.2,6.9h-6.2L187.5,11.4z M195.2,21.5c2,0,3.7-1.1,4-2.9c0.3-1.7-1-2.7-2.9-2.7h-3.3l-1,5.6 H195.2z"/>
    <path class="a" d="M206.6,21.9c1.1-6.5,6.8-10.9,13.6-10.9c5,0,8.7,2.8,9,6.7l-5.8,1c-0.2-1.6-1.9-2.7-3.9-2.7 c-3.2,0-6,2.4-6.6,5.9c-0.6,3.4,1.3,5.9,4.7,5.9c2.7,0,5.2-1.7,5.8-3.9h-7.1l0.6-3.6l13,0c-0.6,7.5-6.1,12.6-13.3,12.6 C209.6,33,205.4,28.4,206.6,21.9z M233.9,11.4h10.5c5.1,0,8,2.9,7.3,7.2c-0.6,3.4-3.2,5.8-6.3,6.4l-0.3,0.1l4.9,7.4h-6.9l-4-6.9 h-1.5l-1.2,6.9h-6.2L233.9,11.4z M241.6,21.5c2,0,3.7-1.1,4-2.9c0.3-1.7-1-2.7-2.9-2.7h-3.3l-1,5.6H241.6z M255.6,11.4h6.2 l-3.7,21.1h-6.2L255.6,11.4z M265.1,11.4h8.5c7.2,0,11.3,4.2,10.1,10.6c-1.1,6.3-6.6,10.5-13.8,10.5h-8.6L265.1,11.4z M270.8,27.8 c3.5,0,6.3-2.3,6.9-5.9c0.6-3.5-1.3-5.8-4.8-5.8h-2.6l-2,11.7H270.8z"/>
</svg>
